<svg xmlns="http://www.w3.org/2000/svg" version="1.1" xmlns:xlink="http://www.w3.org/1999/xlink" xmlns:svgjs="http://svgjs.dev/svgjs" width="1500" height="515" viewBox="0 0 1500 515"><g transform="matrix(1,0,0,1,-0.9090909090911055,-0.8103291830481112)"><svg viewBox="0 0 396 136" data-background-color="#ffffff" preserveAspectRatio="xMidYMid meet" height="515" width="1500" xmlns="http://www.w3.org/2000/svg" xmlns:xlink="http://www.w3.org/1999/xlink"><g id="tight-bounds" transform="matrix(1,0,0,1,0.24000000000003752,0.21398984251368347)"><svg viewBox="0 0 395.5199999999999 135.5720203149726" height="135.5720203149726" width="395.5199999999999"><g><svg viewBox="0 0 660.6551595154285 226.4521508571429" height="135.5720203149726" width="395.5199999999999"><g transform="matrix(1,0,0,1,0,31.296932571428584)"><svg viewBox="0 0 395.52 163.85828571428573" height="163.85828571428573" width="395.52"><g id="textblocktransform"><svg viewBox="0 0 395.52 163.85828571428573" height="163.85828571428573" width="395.52" id="textblock"><g><svg viewBox="0 0 395.52 163.85828571428573" height="163.85828571428573" width="395.52"><g transform="matrix(1,0,0,1,0,0)"><svg width="395.52" viewBox="2.45 -35.6 87.5 36.25" height="163.85828571428573" data-palette-color="#0030d9"><path d="M8.1-18.75L8.1-18.75Q8.1-11.55 11.58-7.55 15.05-3.55 20.2-3.55L20.2-3.55Q23.95-3.55 30.15-6.95L30.15-6.95 31.5-4.9Q29.2-3.2 27.93-2.45 26.65-1.7 25.05-0.9L25.05-0.9Q21.8 0.65 18.1 0.65L18.1 0.65Q11.6 0.65 7.03-4.2 2.45-9.05 2.45-17.2 2.45-25.35 7.75-30.48 13.05-35.6 20.9-35.6L20.9-35.6Q26.15-35.6 30.75-33.2L30.75-33.2Q30.15-30.05 28.65-27.9L28.65-27.9Q23.5-32.05 17.5-32.05L17.5-32.05Q15.7-32.05 14-31.7L14-31.7Q11.45-29.8 9.78-26.55 8.1-23.3 8.1-18.75ZM41.6-34.9L41.6-34.9 49.05-35Q61.05-35 61.05-26.35L61.05-26.35Q61.05-22.15 58.27-19.33 55.5-16.5 50.9-15.95L50.9-15.95 56.65-8.7Q60.25-4.15 62.05-2.5 63.85-0.85 65.15-0.5L65.15-0.5 65.15 0 56.95 0Q56-1.55 53.95-4.45L53.95-4.45 45.85-15.8 44.4-15.9 44.4-8.05Q44.4-2.8 45.15-0.35L45.15-0.35 45.15 0 38.3 0 38.3-0.35Q39.25-2.9 39.25-7.5L39.25-7.5 39.25-26.9Q39.25-32.1 38.5-34.65L38.5-34.65 38.5-35Q38.5-35 41.6-34.9ZM48.4-32.45L48.4-32.45Q46-32.45 44.55-32.25L44.55-32.25Q44.4-31.15 44.4-18.35L44.4-18.35Q46.2-18.15 47.85-18.15L47.85-18.15Q52.05-18.15 53.77-20.08 55.5-22 55.5-25.78 55.5-29.55 53.9-31 52.3-32.45 48.4-32.45ZM73.6-31.6L73.6-31.6Q72.55-30.25 72.55-28.33 72.55-26.4 73.5-25.15 74.45-23.9 76-23.08 77.55-22.25 79.4-21.48 81.25-20.7 83.1-19.78 84.95-18.85 86.5-17.63 88.05-16.4 89-14.38 89.95-12.35 89.95-9.7L89.95-9.7Q89.95-4.65 86.7-2.05 83.45 0.55 77.8 0.55 72.15 0.55 67.65-2.65L67.65-2.65Q67.8-5.95 69.45-8.4L69.45-8.4Q71.45-6 74.3-4.45 77.15-2.9 79.75-2.9 82.35-2.9 84.2-4.05L84.2-4.05Q85.45-5.55 85.45-8 85.45-10.45 84.17-12 82.9-13.55 81.02-14.43 79.15-15.3 76.92-16.38 74.7-17.45 72.82-18.55 70.95-19.65 69.67-21.7 68.4-23.75 68.4-26.5L68.4-26.5Q68.4-31.1 71.52-33.35 74.65-35.6 79.37-35.6 84.1-35.6 89.05-33.3L89.05-33.3Q88.5-30.35 87.25-27.7L87.25-27.7Q85.2-29.75 82.52-31.08 79.85-32.4 77.45-32.4 75.05-32.4 73.6-31.6Z" opacity="1" transform="matrix(1,0,0,1,0,0)" fill="#0030d9" class="wordmark-text-0" data-fill-palette-color="primary" id="text-0"></path></svg></g></svg></g></svg></g></svg></g><g transform="matrix(1,0,0,1,434.2030086582857,0)"><svg viewBox="0 0 226.4521508571429 226.4521508571429" height="226.4521508571429" width="226.4521508571429"><g data-palette-color="#233afc"><rect width="61.89692123428572" height="226.4521508571429" fill="#233afc" stroke="transparent" data-fill-palette-color="accent" x="0" fill-opacity="1"></rect><rect width="61.89692123428572" height="226.4521508571429" fill="#233afc" stroke="transparent" data-fill-palette-color="accent" x="75.48405028571429" fill-opacity="0.75"></rect><rect width="61.89692123428572" height="226.4521508571429" fill="#233afc" stroke="transparent" data-fill-palette-color="accent" x="150.96810057142858" fill-opacity="0.5"></rect></g></svg></g></svg></g><defs></defs></svg><rect width="395.5199999999999" height="135.5720203149726" fill="none" stroke="none" visibility="hidden"></rect></g></svg></g></svg>